<svg width="93" height="93" fill="none" xmlns="http://www.w3.org/2000/svg"><path d="M92.5 89.835h-2.968v2.968H92.5v-2.968zM71.726 15.641V3.771H47.984V.801h-2.968V3.77H21.274v32.063l-8.903-5.14v-.213h-.367l-.321-.186-.108.186H.5v20.774a5.941 5.941 0 005.935 5.936h14.84v5.935h13.028l-5.342 26.71H.5v2.968h86.064v-2.968H64.04l-5.342-26.71h13.029V39.383h11.87v-2.968h-2.552l2.686-10.74L78.23 18.8c5.57.976 9.82 5.835 9.82 11.68h2.967c0-4.856-2.356-9.163-5.974-11.871H92.5V15.64H71.726zM9.403 51.254a2.972 2.972 0 01-2.968 2.968 2.972 2.972 0 01-2.967-2.968V33.448h5.935v17.806zm10.968-11.472l2.968 5.138-9.59 5.538 5.934-10.28.688-.396zm-8-4.743l.399-.692 5.138 2.968-5.537 9.593V35.04zm.792 19.183l10.281-5.936h.798v5.936H13.163zm31.853 35.613H31.988l5.342-26.71h7.686v26.71zm15.996 0H47.984v-26.71h7.686l5.342 26.71zm7.612-64.16l2.686 10.74h-2.552v23.742H24.242V57.19h2.968V46.112l.183-.107-.183-.317v-.37h-.214l-2.754-4.77V6.738h44.516v8.903h-8.903v2.968h7.458c-3.619 2.708-5.974 7.015-5.974 11.87h2.968c0-5.844 4.249-10.703 9.819-11.68l-5.502 6.877zm11.872.708l-2.508 10.032h-3.62l-2.509-10.034 2.835-3.543v6.158h2.967V22.84l2.835 3.543z" fill="#CDA274"/><path d="M33.145 12.673h-2.968v2.968h2.968v-2.968zm29.677 38.581h-2.967v2.968h2.968v-2.968zm-2.967-17.806c0-7.364-5.991-13.355-13.355-13.355-2.4 0-4.65.645-6.6 1.758l-4.07-5.598L33.428 18l4.077 5.605c-2.673 2.443-4.36 5.945-4.36 9.844 0 7.363 5.99 13.354 13.354 13.354 2.4 0 4.65-.645 6.6-1.758l4.07 5.598 2.401-1.745-4.077-5.606c2.673-2.443 4.36-5.944 4.36-9.843zM46.5 43.835c-5.726 0-10.387-4.662-10.387-10.387 0-2.913 1.21-5.546 3.148-7.433l12.082 16.616a10.347 10.347 0 01-4.843 1.204zm-4.843-19.569a10.327 10.327 0 014.843-1.205c5.726 0 10.387 4.66 10.387 10.387 0 2.912-1.21 5.546-3.148 7.432L41.657 24.266z" fill="#CDA274"/></svg>