<svg width="90" height="91" fill="none" xmlns="http://www.w3.org/2000/svg"><path d="M90 42.61v-3.646L46.922 7.77h-3.844l-9.69 7.016V9.222h2.902V.512H7.258v8.71h2.903v22.384L0 38.964v3.645h7.258v21.774H0v20.323h7.258v5.806h75.484V60.03A7.265 7.265 0 0090 52.77a7.265 7.265 0 00-7.258-7.258V42.61H90zM10.161 3.415h23.226v2.903H10.161V3.416zm20.323 5.806v7.668l-17.42 12.615V9.222h17.42zM5.806 75.996v5.807H2.903V67.287h66.774v14.516h-2.903v-5.807h-2.903v5.807h-2.903v-5.807h-2.904v5.807h-2.903v-5.807h-2.903v5.807h-2.903v-5.807h-2.903v5.807h-2.904v-5.807h-2.903v5.807h-2.903v-5.807h-2.903v5.807h-2.903v-5.807h-2.904v5.807H26.13v-5.807h-2.903v5.807h-2.903v-5.807H17.42v5.807h-2.903v-5.807h-2.903v5.807H8.71v-5.807H5.806zM79.84 87.61H10.16v-2.903h62.42V64.383H10.16V42.61h69.68v2.904H27.142L16.254 52.77l10.887 7.258H79.84v27.58zm-2.903-39.193v8.71h-2.904v-8.71h2.904zM30.485 51.32v-2.903H71.13v2.903H30.484zm40.645 2.903v2.903H30.484v-2.903h40.645zM27.581 48.71v8.123l-6.093-4.063 6.093-4.06zm59.516 4.06a4.36 4.36 0 01-4.355 4.355h-2.903v-8.71h2.903a4.36 4.36 0 014.355 4.355zM3.927 39.706l40.091-29.032h1.964l40.091 29.032H3.927z" fill="#CDA274"/><path d="M45 15.028c-6.403 0-11.613 5.21-11.613 11.613S38.597 38.254 45 38.254s11.613-5.21 11.613-11.613S51.403 15.028 45 15.028zm0 20.323c-4.803 0-8.71-3.907-8.71-8.71 0-4.803 3.907-8.71 8.71-8.71 4.803 0 8.71 3.907 8.71 8.71 0 4.803-3.907 8.71-8.71 8.71z" fill="#CDA274"/></svg>