<svg width="86" height="87" fill="none" xmlns="http://www.w3.org/2000/svg"><path d="M58.767 76.374H55.9V14.741c0-.287-.143-.717-.286-.86L51.457 1.41C51.314.837 50.74.407 50.167.407c-.573 0-1.147.43-1.29 1.004L44.72 13.88c-.143.287-.286.573-.286.86v70.233c0 .86.573 1.433 1.433 1.433h8.6c.86 0 1.433-.573 1.433-1.433V79.24h4.3c.86 0 1.434-.573 1.434-1.433v-43h-2.867v41.566zM47.3 16.174h5.734v51.6H47.3v-51.6zm2.867-9.747l2.293 6.88h-4.586l2.293-6.88zm2.867 77.114H47.3v-12.9h5.734v12.9zM84.566.407H68.8c-.86 0-1.433.574-1.433 1.434v83.133c0 .86.573 1.433 1.433 1.433h15.767c.86 0 1.433-.573 1.433-1.433V1.841c0-.86-.573-1.434-1.433-1.434zm-1.433 83.134h-12.9V73.507h7.166v-2.866h-7.166V59.174h7.166v-2.867h-7.166V44.841h7.166v-2.867h-7.166V30.508h7.166V27.64h-7.166V16.174h7.166v-2.867h-7.166V3.274h12.9v80.267zM20.067 14.74C9.03 14.74 0 23.77 0 34.808c0 7.74 4.443 14.764 11.467 18.06v17.774c0 .86.573 1.433 1.433 1.433h5.733v4.3H21.5v-4.3h5.733c.86 0 1.434-.573 1.434-1.433V52.868a19.914 19.914 0 0011.466-18.06c0-11.037-9.03-20.067-20.066-20.067zM25.8 69.208H14.333v-4.3H25.8v4.3zm.86-18.49c-.573.144-.86.717-.86 1.29v10.034H14.333v-2.867H21.5v-2.867h-7.167v-4.3c0-.573-.286-1.146-.86-1.29-6.45-2.723-10.606-9.03-10.606-15.91 0-9.46 7.74-17.2 17.2-17.2 9.46 0 17.2 7.74 17.2 17.2 0 6.88-4.157 13.187-10.607 15.91z" fill="#CDA274"/><path d="M23.364 26.637l-3.297 3.297-3.297-3.297-2.006 2.007 3.87 3.87v15.194H21.5V32.514l3.87-3.87-2.006-2.006z" fill="#CDA274"/></svg>