<svg width="87" height="95" fill="none" xmlns="http://www.w3.org/2000/svg"><path d="M87 21.18V.617H57.34V32.93h-5.93v17.625H25.705V68.18H0v26.437h80.08V32.93H60.307V21.18H87zM60.307 3.555h23.727v14.687H60.307V3.555zM28.67 53.492h22.74v4.897H28.67v-4.897zM2.966 71.117h22.74v4.897H2.965v-4.897zM77.114 91.68H2.966V78.95h22.74v6.366h2.965v-23.99h22.74v10.28h2.966V43.702h22.737V91.68zm0-55.813v4.897h-22.74v-4.897h22.74z" fill="#CDA274"/><path d="M79.585 6.492h-6.92V9.43h6.92V6.492zm0 5.875h-14.83v2.938h14.83v-2.938zm-47.455-.978v2.937h8.284L3.4 50.984l2.098 2.079 37.013-36.66v6.246h2.966v-11.26H32.13zm-22.74 70.5H5.438v2.937H9.39V81.89zm13.843 0h-3.954v2.937h3.954V81.89zm11.863-17.625h-3.954V67.2h3.954v-2.937zm13.842 0h-3.954V67.2h3.954v-2.937zm11.864-17.625h-3.954v2.937h3.954V46.64zm13.839 0h-3.954v2.937h3.954V46.64z" fill="#CDA274"/></svg>