<svg width="93" height="93" fill="none" xmlns="http://www.w3.org/2000/svg"><circle cx="46.5" cy="46.5" r="46.5" fill="#F4F0EC"/><path d="M61.001 55.075c-1.221-1.23-4.18-3.027-5.615-3.75-1.87-.942-2.024-1.02-3.493.072-.98.729-1.631 1.38-2.778 1.135-1.147-.245-3.64-1.624-5.822-3.8-2.182-2.174-3.642-4.739-3.887-5.882-.245-1.143.416-1.787 1.138-2.769 1.017-1.385.94-1.615.07-3.485-.677-1.453-2.526-4.384-3.761-5.6-1.322-1.305-1.322-1.074-2.173-.72-.694.292-1.359.646-1.987 1.06-1.231.817-1.914 1.496-2.392 2.517-.477 1.02-.692 3.413 1.775 7.895 2.467 4.481 4.198 6.773 7.78 10.345 3.582 3.572 6.337 5.493 10.364 7.751 4.982 2.79 6.893 2.246 7.916 1.77 1.024-.478 1.707-1.155 2.526-2.385.414-.628.77-1.292 1.062-1.985.354-.848.585-.848-.723-2.17z" stroke="#CDA274" stroke-width="2" stroke-miterlimit="10"/></svg>