<svg width="52" height="53" fill="none" xmlns="http://www.w3.org/2000/svg"><circle cx="26" cy="26.505" r="26" fill="#F4F0EC"/><path d="M36 27.005c0-5.799-4.701-10.5-10.5-10.5S15 21.206 15 27.005s4.701 10.5 10.5 10.5S36 32.804 36 27.005Z" stroke="#CDA274" stroke-width="2" stroke-miterlimit="10"/><path d="M35.447 22.836c-.812.005-.732 1.513-1.745.801-.375-.263-.607-.646-1.079-.763-.412-.102-.834.004-1.242.075-.463.08-1.012.116-1.363.47-.34.338-.519.794-.88 1.135-.699.662-.994 1.384-.542 2.32.436.899 1.346 1.387 2.328 1.323.965-.065 1.967-.628 1.94.782-.011.5.093.845.245 1.309.141.427.131.841.164 1.283.06.824.21 1.748.617 2.476l.76-1.076c.093-.134.288-.32.335-.478.083-.278-.08-.756-.099-1.068-.018-.312-.01-.628-.057-.94-.067-.438-.324-.847-.359-1.28-.065-.804.08-1.446-.535-2.119-.595-.649-1.468-.804-2.3-.672-.42.066-2.111.337-1.433-.628.134-.19.369-.346.52-.526.13-.158.244-.447.398-.57.154-.122.86-.263 1.063-.2.202.062.413.356.589.486.324.246.702.41 1.103.477.691.101 2.136-.303 2.125-1.194-.002-.428-.397-1.023-.553-1.423Zm-8 7.336c-.27-1.142-1.812-1.523-2.643-2.143-.479-.356-.904-.906-1.532-.95-.29-.022-.532.041-.819-.034-.263-.068-.47-.21-.75-.173-.523.07-.854.632-1.416.556-.534-.073-1.084-.7-1.205-1.212-.156-.658.361-.87.915-.93.231-.024.49-.05.713.035.292.11.43.397.693.543.492.271.592-.163.517-.602-.113-.659-.245-.927.34-1.38.404-.313.75-.539.685-1.1-.038-.33-.218-.479-.05-.807.127-.25.475-.476.702-.625.587-.384 2.512-.356 1.726-1.433-.232-.316-.658-.88-1.063-.958-.506-.096-.73.472-1.083.722-.364.26-1.074.553-1.439.153-.49-.54.326-.716.506-1.092.181-.376-.418-1.087-.739-1.267l-1.508 1.7a2.125 2.125 0 0 0 .422 1.622c.3.389.778.513.8 1.043.02.51-.058.77-.39 1.128-.142.152-.244.37-.39.512-.178.175-.112.121-.39.17-.524.088-.97.226-1.477.366-.844.235-.922-1.152-1.306-1.696L16 23.347c-.014.169.207.479.267.662.346 1.047 1.043 1.856 1.493 2.858.474 1.06 1.747.766 2.31 1.696.498.824-.035 1.868.339 2.73.271.627.91.764 1.352 1.222.45.463.44 1.096.51 1.698.077.708.203 1.41.377 2.1.06.24.117.555.28.752.11.135.493.252.338.297.216.035.6.238.78.09.236-.196.173-.798.214-1.07.123-.809.526-1.6 1.07-2.206.536-.597 1.272-1.002 1.725-1.68.442-.66.575-1.55.392-2.324Zm-1.689 1.34c-.303.545-.98.91-1.414 1.343-.118.117-.369.524-.517.436-.105-.063-.141-.591-.18-.712a3.112 3.112 0 0 0-1.098-1.524c-.159-.12-.552-.278-.642-.443-.101-.18-.01-.604-.007-.8.006-.284-.123-.758-.053-1.017.08-.299-.075-.118.19-.178.14-.031.72.071.894.108.277.058.43.231.649.407.574.464 1.207.822 1.851 1.178.5.277.646.63.327 1.202ZM22.237 17.49c.24.236.465.514.823.538.338.023.658-.162.953.07.328.254.564.577 1 .656.42.077.866-.17.97-.604.101-.412-.117-.861-.13-1.275 0-.058.031-.313-.008-.357-.03-.032-.274.004-.312.005a10.428 10.428 0 0 0-3.714.803c.123.085.278.12.418.164Zm8.699 2.859c.43 0 .866-.194.727-.693-.116-.42-.315-.873-.797-.648-.308.144-.743.51-.779.872-.04.41.563.469.849.469Zm-.343 2.187c.439.264 1.09.14 1.42-.238.259-.295.41-.807.876-.807.205 0 .401.08.547.225.193.2.155.388.196.638.091.562.69.032.847-.186.101-.142.238-.352.192-.537-.042-.173-.242-.356-.332-.515-.26-.458-.474-.99-.863-1.36-.375-.357-.836-.316-1.192.054-.291.306-.63.548-.829.919-.14.261-.299.386-.584.453-.157.038-.336.051-.467.157-.367.29-.158.987.189 1.197Z" fill="#CDA274"/></svg>