<svg width="164" height="44" fill="none" xmlns="http://www.w3.org/2000/svg"><path d="M35.4 43.548H8.583a7.978 7.978 0 01-7.978-7.979V8.751A7.978 7.978 0 018.582.77h26.819a7.978 7.978 0 017.978 7.98v26.818a7.978 7.978 0 01-7.978 7.979z" fill="#292F36"/><path d="M29.7 22.553c.762.957 1.15 2.07 1.15 3.33 0 1.852-.618 3.305-1.853 4.335-1.235 1.029-3.003 1.561-5.303 1.561h-10.05V10.167h9.808c2.203 0 3.898.485 5.097 1.441 1.199.957 1.804 2.325 1.804 4.093 0 1.307-.351 2.385-1.041 3.256-.69.872-1.599 1.43-2.725 1.696 1.32.314 2.35.944 3.112 1.9zm-10.837-3.547h3.426c1.816 0 2.724-.775 2.724-2.325 0-1.55-.932-2.324-2.784-2.324h-3.366v4.649zm6.635 6.15c0-.774-.254-1.38-.763-1.816-.508-.435-1.235-.653-2.167-.653h-3.693v4.855h3.73c1.924-.012 2.893-.8 2.893-2.385z" fill="#fff"/><path d="M68.165 31.78l-4.674-8.16h-1.186v8.16h-5.23V10.168h8.922c1.708 0 3.16.29 4.335.884 1.187.593 2.07 1.404 2.664 2.433.593 1.03.883 2.204.883 3.536 0 1.574-.435 2.905-1.295 4.007-.872 1.102-2.119 1.853-3.778 2.264l5.134 8.5h-5.775v-.012zm-5.86-11.732h3.232c1.042 0 1.804-.23 2.289-.69.484-.46.738-1.139.738-2.035 0-.86-.254-1.525-.75-2.022-.497-.484-1.26-.738-2.277-.738h-3.232v5.485zm35.233 7.797h-8.1l-1.344 3.947h-5.497l7.918-21.455h6.018l7.918 21.455h-5.557l-1.356-3.947zm-1.344-3.983l-2.688-7.943-2.724 7.942h5.412zm37.109 7.918h-5.23l-8.742-13.27v13.27h-5.23V10.168h5.23l8.742 13.39v-13.39h5.23V31.78zm29.325-5.206c-.908 1.634-2.216 2.917-3.911 3.838-1.707.92-3.705 1.38-6.005 1.38h-8.161V10.18h8.161c2.324 0 4.334.448 6.017 1.344 1.695.896 2.991 2.155 3.899 3.79.908 1.634 1.356 3.499 1.356 5.63 0 2.106-.46 3.983-1.356 5.63zm-5.63-1.09c1.126-1.078 1.695-2.603 1.695-4.553 0-1.961-.569-3.474-1.695-4.552-1.126-1.078-2.712-1.622-4.758-1.622h-2.47v12.35h2.47c2.046 0 3.632-.533 4.758-1.623z" fill="#292F36"/></svg>