<svg width="118" height="48" fill="none" xmlns="http://www.w3.org/2000/svg"><path d="M.684 29.784V.578h17.2V29.77H.684v.014zM15.8 22.99l.443-3.226-1.599-.157-.485 2.484c-1 .5-2.227.742-3.697.742-1.999 0-3.583-.628-4.74-1.898-1.17-1.27-1.741-2.94-1.741-5.025 0-2.027.571-3.697 1.699-5.01 1.127-1.313 2.612-1.97 4.453-1.97.943 0 1.742.114 2.384.328.643.214 1.228.5 1.785.871l.47 2.455 1.628-.157-.471-3.226c-.685-.585-1.499-1.056-2.441-1.427-.942-.357-2.113-.543-3.497-.543-1.642 0-3.055.4-4.24 1.214a8.287 8.287 0 00-2.77 3.211 9.708 9.708 0 00-.984 4.326c0 2.44.756 4.482 2.27 6.11 1.513 1.627 3.482 2.44 5.923 2.44 2.399 0 4.269-.514 5.61-1.542zm7.923 6.794V.578h7.394V29.77h-7.394v.014zm.785-5.51h5.838v-1.47h-2.013V6.502H24.48v1.47h2.041v14.832h-2.012v1.47zm12.447 5.51V.578h12.99V29.77h-12.99v.014zm2.355-16.13l-.414 2.655 1.5.185.442-1.984c.642-.314 1.37-.47 2.227-.47 1.027 0 1.727.256 2.084.77s.528 1.185.528 2.013v1.028a19.407 19.407 0 00-1-.072c-.356-.014-.699-.028-1.041-.028a9.783 9.783 0 00-3.655.685c-1.142.457-1.713 1.413-1.713 2.855 0 1.227.386 2.07 1.17 2.526.786.471 1.557.7 2.313.7.928 0 1.727-.243 2.384-.728.657-.486 1.17-1.028 1.542-1.656v.057c.028 1.556.728 2.327 2.098 2.327.528 0 1.028-.129 1.499-.386l-.029-1.184a1.9 1.9 0 01-.77.157c-.657 0-.985-.414-.985-1.242v-5.467c0-2.57-1.37-3.854-4.111-3.854-.757 0-1.47.085-2.142.256a6.86 6.86 0 00-1.927.857zm6.353 6.31c-.072.941-.457 1.698-1.157 2.24-.7.557-1.441.828-2.24.828-.5 0-.986-.142-1.442-.414-.472-.27-.7-.785-.7-1.527 0-.9.357-1.47 1.042-1.742.7-.27 1.47-.4 2.341-.4.386 0 .757.015 1.114.058.356.028.713.057 1.027.071v.885h.015zm10.134 9.82V.578h11.805V29.77H55.797v.014zm10.563-8.836c0-.913-.243-1.584-.728-2.027-.485-.442-1.07-.742-1.784-.913a29.164 29.164 0 00-2.113-.429c-.7-.114-1.299-.3-1.784-.542-.486-.243-.728-.67-.728-1.285 0-.585.228-1.013.7-1.299.47-.285 1.055-.414 1.783-.414.843 0 1.628.186 2.356.571l.285 1.856 1.5-.186-.286-2.683c-.486-.3-1.07-.543-1.77-.742-.7-.2-1.442-.315-2.241-.315a5.92 5.92 0 00-2.927.757c-.899.5-1.342 1.356-1.342 2.584 0 .899.243 1.556.728 1.97.486.428 1.085.713 1.813.885.728.17 1.442.314 2.156.442.713.114 1.313.314 1.798.571.486.257.728.7.728 1.342 0 .657-.314 1.142-.942 1.456-.628.314-1.342.471-2.155.471-.914 0-1.77-.186-2.555-.571l.071-1.527-1.442-.157-.357 2.612c.5.328 1.157.6 1.956.814a9.27 9.27 0 002.412.328c1.385 0 2.541-.314 3.47-.957.927-.613 1.398-1.498 1.398-2.612zm7.081 8.836V.578h11.805V29.77H73.441v.014zm10.563-8.836c0-.913-.242-1.584-.728-2.027-.485-.442-1.07-.742-1.784-.913a29.164 29.164 0 00-2.112-.429c-.7-.114-1.3-.3-1.785-.542-.485-.243-.728-.67-.728-1.285 0-.585.229-1.013.7-1.299.47-.285 1.056-.414 1.784-.414.842 0 1.627.186 2.355.571l.286 1.856 1.499-.186-.286-2.683c-.485-.3-1.07-.543-1.77-.742-.7-.2-1.442-.315-2.241-.315a5.92 5.92 0 00-2.926.757c-.9.5-1.342 1.356-1.342 2.584 0 .899.243 1.556.728 1.97.485.428 1.085.713 1.813.885.728.17 1.442.314 2.155.442.714.114 1.314.314 1.799.571.485.257.728.7.728 1.342 0 .657-.314 1.142-.942 1.456-.628.314-1.342.471-2.156.471-.913 0-1.77-.186-2.555-.571l.072-1.527-1.442-.157-.357 2.612c.5.328 1.156.6 1.956.814a9.27 9.27 0 002.412.328c1.385 0 2.54-.314 3.469-.957.928-.613 1.398-1.498 1.398-2.612zm7.08 8.836V.578h7.78V29.77h-7.78v.014zm1.142-5.51h5.838v-1.47h-2.012v-10.02h-3.869v1.47h2.07v8.55H92.24v1.47h-.014zM94.053 7.46v2.355h1.97V7.46h-1.97zm10.65 22.324V.578h12.433V29.77h-12.433v.014zm11.32-9.378l-1.556-.343c-.343 1.942-1.385 2.912-3.098 2.912-1.142 0-2.012-.385-2.612-1.156-.599-.77-.899-1.856-.899-3.226 0-1.242.271-2.298.799-3.183.528-.885 1.413-1.314 2.641-1.314.942 0 1.77.214 2.455.643l.443 1.941 1.499-.186-.443-2.769c-.585-.442-1.199-.756-1.841-.928a8.132 8.132 0 00-2.099-.257c-1.784 0-3.14.629-4.025 1.885-.899 1.256-1.342 2.683-1.342 4.268 0 1.841.471 3.283 1.427 4.296.943 1.028 2.213 1.542 3.798 1.542 1.584 0 2.755-.442 3.497-1.313.742-.885 1.199-1.813 1.356-2.812zM8.12 45.729a3.41 3.41 0 01-1.441 1.399c-.642.328-1.399.5-2.284.5H1.84v-8.052h2.555c.885 0 1.656.157 2.284.486.628.328 1.113.785 1.442 1.399.328.614.485 1.313.485 2.14 0 .815-.157 1.528-.485 2.128zm-1.413.157c.557-.543.828-1.3.828-2.284 0-.985-.27-1.742-.828-2.284-.556-.542-1.356-.814-2.412-.814H2.853V46.7h1.442c1.056 0 1.856-.27 2.412-.813zm7.194-5.467v2.755h3.055v.799h-3.055v2.812H17.3v.842h-4.44v-8.05h4.44v.842h-3.4zM26.32 46.6c-.186.328-.457.6-.828.799-.371.2-.828.314-1.385.314-.528 0-1.013-.1-1.427-.285a2.643 2.643 0 01-1-.8 2.374 2.374 0 01-.427-1.156h1.113c.029.228.1.457.228.67.129.215.329.4.571.543.243.143.543.214.9.214.456 0 .813-.114 1.056-.37.243-.258.371-.558.371-.943 0-.328-.086-.6-.257-.8a1.907 1.907 0 00-.628-.485 10.29 10.29 0 00-1.028-.385 12.677 12.677 0 01-1.227-.471 1.963 1.963 0 01-.785-.671c-.215-.3-.329-.685-.329-1.17 0-.414.1-.786.3-1.114.2-.314.485-.57.87-.742.372-.171.829-.257 1.328-.257.785 0 1.428.185 1.884.57.472.386.729.872.814 1.471h-1.113c-.057-.314-.229-.6-.486-.842-.27-.243-.628-.371-1.084-.371-.414 0-.757.114-1 .328-.257.214-.37.528-.37.914 0 .314.085.57.242.756.171.2.371.343.614.457.242.114.585.228.999.371.514.171.928.328 1.256.485.314.157.585.386.8.686.214.3.328.713.328 1.227a2.5 2.5 0 01-.3 1.057zm5.568-7.024v8.051h-1.042v-8.05h1.042zm10.535.614c.643.471 1.07 1.1 1.285 1.899h-1.1a2.401 2.401 0 00-.956-1.17c-.442-.3-.97-.443-1.584-.443-.542 0-1.042.128-1.47.385a2.787 2.787 0 00-1.028 1.085c-.243.471-.371 1.028-.371 1.67 0 .657.128 1.228.37 1.699.244.47.6.842 1.043 1.099.442.257.956.385 1.542.385.5 0 .942-.114 1.356-.314a2.743 2.743 0 001.013-.927c.271-.4.414-.886.471-1.428h-3.169v-.77h4.04v.956a4.09 4.09 0 01-.6 1.741c-.328.528-.77.928-1.327 1.228-.557.3-1.185.457-1.899.457-.77 0-1.456-.172-2.055-.514a3.495 3.495 0 01-1.385-1.456c-.328-.614-.5-1.328-.5-2.127 0-.8.172-1.513.5-2.127.329-.614.8-1.114 1.385-1.456.585-.343 1.27-.528 2.041-.528.97-.029 1.756.2 2.398.656zM54.4 47.627h-1.043l-4.182-6.366v6.366h-1.042v-8.05h1.042l4.182 6.366v-6.367H54.4v8.051zM69.416 46.6c-.186.328-.457.6-.828.799-.371.2-.828.314-1.385.314a3.49 3.49 0 01-1.427-.285 2.644 2.644 0 01-1-.8 2.374 2.374 0 01-.428-1.156h1.114c.028.228.1.457.228.67.129.215.328.4.571.543.243.143.543.214.9.214.456 0 .813-.114 1.056-.37a1.31 1.31 0 00.37-.943c0-.328-.085-.6-.256-.8a1.907 1.907 0 00-.628-.485 10.28 10.28 0 00-1.028-.385 12.677 12.677 0 01-1.228-.471 1.963 1.963 0 01-.785-.671c-.214-.3-.328-.685-.328-1.17 0-.414.1-.786.3-1.114.2-.314.485-.57.87-.742.372-.171.828-.257 1.328-.257.785 0 1.428.185 1.884.57.471.386.728.872.814 1.471h-1.114c-.057-.314-.228-.6-.485-.842-.271-.243-.628-.371-1.085-.371-.414 0-.756.114-.999.328-.257.214-.371.528-.371.914 0 .314.086.57.243.756.17.2.37.343.613.457.243.114.586.228 1 .371.514.171.928.328 1.256.485.314.157.585.386.8.686.213.3.327.713.327 1.227a2.5 2.5 0 01-.3 1.057zm9.463-7.024v.843h-2.27v7.208h-1.056V40.42h-2.27v-.843h5.596zm4.853 0v4.825c0 .785.171 1.37.528 1.756.357.371.828.571 1.456.571.614 0 1.085-.186 1.428-.571.342-.385.514-.956.514-1.741V39.59H88.7v4.825c0 1.099-.271 1.927-.814 2.469-.542.557-1.27.828-2.184.828-.9 0-1.627-.271-2.17-.828-.542-.557-.813-1.37-.813-2.47V39.59h1.013v-.015zm15.717 6.153a3.41 3.41 0 01-1.442 1.399c-.642.328-1.399.5-2.284.5h-2.555v-8.052h2.555c.885 0 1.656.157 2.284.486.628.328 1.113.785 1.442 1.399.328.614.485 1.313.485 2.14 0 .815-.157 1.528-.485 2.128zm-1.4.157c.557-.543.829-1.3.829-2.284 0-.985-.272-1.742-.828-2.284-.557-.542-1.356-.814-2.413-.814h-1.441V46.7h1.441c1.043 0 1.856-.27 2.413-.813zm7.196-6.31v8.051h-1.042v-8.05h1.042zm10.22.429c.6.357 1.071.842 1.414 1.47.342.628.513 1.342.513 2.127 0 .785-.171 1.499-.513 2.127a3.786 3.786 0 01-1.414 1.47c-.599.357-1.27.528-2.012.528-.743 0-1.428-.171-2.027-.528a3.821 3.821 0 01-1.428-1.47c-.342-.628-.514-1.342-.514-2.127 0-.785.172-1.499.514-2.127a3.725 3.725 0 011.428-1.47 3.939 3.939 0 012.027-.528c.742 0 1.413.17 2.012.528zm-3.511.828a2.555 2.555 0 00-1.028 1.099c-.243.47-.371 1.027-.371 1.67 0 .628.128 1.185.371 1.67.243.485.585.842 1.028 1.1.442.256.928.385 1.484.385.543 0 1.042-.129 1.485-.386a2.644 2.644 0 001.028-1.099c.242-.471.371-1.028.371-1.656 0-.642-.129-1.199-.371-1.67a2.644 2.644 0 00-1.028-1.1 2.88 2.88 0 00-1.485-.384 2.768 2.768 0 00-1.484.37z" fill="#292F36"/></svg>