<svg width="132" height="44" fill="none" xmlns="http://www.w3.org/2000/svg"><path d="M11.634.977v.185l-.771.186V9.57l.77.185v.186H7.98v-.186l.771-.185V2.56l-3.026 7.508H5.34L1.413 2.561V9.37l1.028.385v.186H0v-.186l1.028-.385V1.348l-.771-.186V.977h1.599c.242 0 .456.028.628.085a1.606 1.606 0 01.828.571c.1.129.185.286.27.443l2.799 5.353 2.14-5.353a1.82 1.82 0 01.244-.471c.085-.129.2-.243.328-.343.128-.1.285-.171.471-.214.186-.043.414-.071.7-.071h1.37zm4.568 2.383c.528 0 1.013.072 1.427.229.414.157.771.385 1.071.67.3.3.514.657.671 1.071.157.414.228.9.228 1.428 0 .528-.071 1.013-.228 1.427a3.17 3.17 0 01-.67 1.07c-.3.3-.658.515-1.072.672-.414.157-.899.228-1.427.228s-1.014-.071-1.427-.228a3.17 3.17 0 01-1.071-.671c-.3-.3-.514-.657-.67-1.07-.158-.415-.23-.9-.23-1.428 0-.528.072-1.014.23-1.428a3.17 3.17 0 01.67-1.07c.3-.3.657-.514 1.07-.671.415-.157.886-.229 1.428-.229zm0 6.552a.807.807 0 00.442-.142c.143-.1.272-.257.386-.5.114-.243.214-.557.285-.956a9.2 9.2 0 00.115-1.542c0-.628-.043-1.142-.115-1.542-.07-.4-.17-.728-.285-.956-.114-.228-.243-.4-.386-.5a.742.742 0 00-.442-.142.808.808 0 00-.443.142c-.142.1-.27.257-.385.5a3.84 3.84 0 00-.285.956 9.2 9.2 0 00-.115 1.542c0 .628.043 1.142.115 1.542.071.4.17.728.285.956.114.228.243.4.385.5a.855.855 0 00.443.142zM25.836.977c.77 0 1.156.385 1.156 1.156v7.451l.771.186v.185h-1.156c-.314 0-.557-.043-.742-.143a1.62 1.62 0 01-.443-.328A1.404 1.404 0 0125.137 9a2.211 2.211 0 01-.429.585 2.456 2.456 0 01-.585.4c-.243.128-.528.185-.857.185a2.45 2.45 0 01-1.027-.214 2.136 2.136 0 01-.828-.642 3.227 3.227 0 01-.557-1.056c-.143-.429-.2-.914-.2-1.485 0-.571.072-1.056.2-1.485.143-.428.328-.77.585-1.056.243-.285.543-.5.885-.642a2.98 2.98 0 011.157-.214c.228 0 .428.028.613.071.186.057.343.114.471.186.157.07.286.157.4.257v-2.5l-.77-.185v-.186h1.641V.977zm-.9 3.283c-.1-.1-.185-.186-.3-.257a2.27 2.27 0 00-.313-.186.762.762 0 00-.357-.071.886.886 0 00-.457.128c-.143.086-.257.229-.37.443-.1.214-.186.528-.244.913-.057.4-.085.9-.085 1.528 0 .613.028 1.099.085 1.484.058.386.129.685.229.9.085.214.185.37.314.442a.653.653 0 00.342.114c.2 0 .371-.057.514-.157.143-.1.257-.228.357-.357a3.05 3.05 0 00.3-.514V4.26h-.014zm7.124 5.91c-1.099 0-1.955-.3-2.555-.9-.613-.6-.913-1.442-.913-2.498 0-.528.071-1.013.228-1.427.157-.414.371-.771.643-1.071.27-.3.6-.514.999-.67a3.375 3.375 0 011.285-.23c.485 0 .913.072 1.284.2.386.143.7.329.97.557a2.372 2.372 0 01.828 1.813c0 .114 0 .229-.014.314a8.487 8.487 0 01-.042.243c-.029.085-.043.157-.072.214-.37.071-.77.143-1.199.186-.357.057-.77.1-1.242.128-.47.029-.956.057-1.47.057 0 .528.043.97.114 1.328.072.356.186.642.314.842.143.214.3.357.486.442.185.086.4.129.614.129.256 0 .5-.043.727-.143a1.866 1.866 0 00.985-.914c.1-.2.143-.4.143-.613h.314c0 .257-.057.5-.171.742a1.959 1.959 0 01-.5.642 2.536 2.536 0 01-.77.443c-.286.128-.614.185-.986.185zm-1.284-3.412c.285 0 .542 0 .77-.015.229-.014.415-.028.572-.042.185-.015.328-.043.456-.057.015-.086.043-.186.058-.286.014-.1.028-.2.042-.314.015-.114.015-.243.015-.371 0-.386-.029-.714-.086-.97a2.243 2.243 0 00-.229-.643c-.085-.157-.185-.286-.314-.343-.128-.057-.228-.1-.342-.1a.57.57 0 00-.343.129c-.114.085-.214.243-.314.457a4.484 4.484 0 00-.228.956c-.057.414-.057.942-.057 1.599zm9.451-2.955c-.258 0-.486.057-.686.157-.2.1-.37.228-.514.357a3.627 3.627 0 00-.414.514v4.753l.771.186v.185h-3.597V9.77l.77-.186V3.931l-.77-.185V3.56h1.156c.3 0 .543.057.743.157.185.1.342.214.456.329.129.142.229.3.286.47.128-.185.285-.356.47-.513.158-.129.358-.243.6-.357.243-.114.514-.157.843-.157.456 0 .8.114 1.027.314.229.214.329.514.329.9 0 .285-.086.527-.257.699-.171.17-.414.257-.7.257h-.2c-.07 0-.114-.015-.157-.015-.057-.014-.114-.014-.157-.043V3.803zm6.993 1.67c0-.285-.028-.542-.085-.757a1.431 1.431 0 00-.228-.513.702.702 0 00-.314-.3.784.784 0 00-.343-.1c-.2 0-.371.057-.514.157-.142.1-.27.228-.357.357-.114.157-.2.328-.285.514v4.753l.77.186v.185h-3.596V9.77l.77-.186V3.931l-.77-.185V3.56h1.156c.3 0 .542.057.742.157.186.1.343.214.457.329.128.142.228.3.285.47a2.47 2.47 0 01.429-.585c.142-.142.342-.27.57-.4.229-.128.529-.185.871-.185.371 0 .714.057 1.014.186.314.114.57.285.785.47.214.2.385.415.514.672.128.257.185.514.185.785v4.11l.771.186v.186h-1.67c-.77 0-1.156-.385-1.156-1.156V5.473zM1.355 18.977v-.529h9.921v.529l-2.084.528v10.777h7.48V19.505l-2.084-.528v-.529h9.92v.529l-2.083.528v22.268l2.084.528v.529h-9.921v-.543l2.084-.528V31.153h-7.48v10.606l2.084.528v.528h-9.92v-.528l2.084-.528V19.49l-2.085-.514zm35.487 5.909c1.442 0 2.727.215 3.869.628a7.781 7.781 0 012.898 1.828 7.84 7.84 0 011.827 2.912c.414 1.141.628 2.426.628 3.868 0 1.442-.214 2.726-.628 3.868a7.783 7.783 0 01-1.828 2.898 7.89 7.89 0 01-2.897 1.827c-1.142.414-2.427.628-3.869.628-1.441 0-2.726-.214-3.868-.628a7.783 7.783 0 01-2.898-1.827c-.8-.8-1.413-1.77-1.827-2.898-.414-1.142-.628-2.426-.628-3.868 0-1.442.214-2.727.628-3.868a7.954 7.954 0 011.827-2.912c.8-.814 1.77-1.414 2.898-1.828 1.142-.413 2.427-.628 3.868-.628zm0 17.744c.4 0 .786-.129 1.185-.386.4-.257.742-.7 1.056-1.342.315-.642.572-1.513.771-2.612.2-1.099.3-2.498.3-4.197 0-1.698-.1-3.097-.3-4.196-.2-1.1-.456-1.97-.77-2.612-.315-.643-.671-1.085-1.057-1.342-.385-.257-.785-.386-1.185-.386s-.785.129-1.184.386c-.4.257-.743.7-1.057 1.341-.314.643-.57 1.514-.77 2.613-.2 1.099-.3 2.498-.3 4.196 0 1.7.1 3.098.3 4.197.2 1.1.456 1.97.77 2.612.314.643.671 1.085 1.057 1.342.4.257.785.386 1.184.386zm35.302-12.005c0-.828-.071-1.542-.214-2.099-.143-.556-.314-1.027-.542-1.384-.229-.357-.471-.614-.728-.785-.272-.157-.528-.243-.785-.243-.443 0-.828.143-1.17.428a5.59 5.59 0 00-.886.957 7.936 7.936 0 00-.728 1.384V41.76l2.099.528v.528h-9.736v-.528l2.084-.528V30.625c0-.828-.071-1.542-.214-2.099-.142-.556-.314-1.027-.542-1.384-.229-.357-.471-.614-.728-.785-.271-.157-.528-.243-.785-.243-.443 0-.828.143-1.17.428a5.59 5.59 0 00-.886.957 7.067 7.067 0 00-.728 1.384V41.76l2.084.528v.528h-9.735v-.528l2.084-.528V26.456l-2.084-.528V25.4h3.126c.814 0 1.485.143 1.998.414.529.271.928.585 1.242.9.343.4.6.827.771 1.284a6.8 6.8 0 011.114-1.57c.4-.4.885-.757 1.456-1.085.585-.328 1.284-.485 2.127-.485 1.384 0 2.598.314 3.597.928 1.013.613 1.784 1.413 2.312 2.383.3-.6.671-1.142 1.114-1.641.4-.414.885-.8 1.456-1.142.585-.343 1.284-.528 2.127-.528.956 0 1.812.157 2.612.457.785.3 1.47.713 2.041 1.241a5.569 5.569 0 011.328 1.828c.314.7.47 1.441.47 2.226v11.135l2.085.528v.528h-4.525c-2.084 0-3.126-1.042-3.126-3.126v-9.05h-.015zm19.141 12.704c-2.969 0-5.281-.814-6.923-2.455-1.641-1.642-2.47-3.883-2.47-6.766 0-1.442.215-2.727.629-3.869a8.6 8.6 0 011.741-2.912A7.238 7.238 0 0186.96 25.5c1.056-.414 2.213-.628 3.455-.628 1.298 0 2.469.186 3.497.557 1.027.37 1.912.87 2.626 1.499a6.582 6.582 0 011.656 2.212 6.4 6.4 0 01.571 2.698c0 .328-.014.614-.057.856-.043.243-.071.457-.129.643-.07.228-.128.428-.17.585a40.473 40.473 0 01-3.241.528c-.97.143-2.099.257-3.369.371-1.27.1-2.612.157-3.997.157 0 1.442.1 2.641.314 3.598.214.956.5 1.727.871 2.298.371.57.814.97 1.328 1.213.513.243 1.07.371 1.67.371.7 0 1.356-.128 1.97-.385a5.3 5.3 0 001.598-1.028 5.103 5.103 0 001.085-1.456c.271-.542.4-1.099.4-1.656h.87c0 .7-.156 1.37-.47 2.013a5.194 5.194 0 01-1.342 1.727c-.586.5-1.27.9-2.084 1.2a7.997 7.997 0 01-2.727.456zm-3.483-9.221c.785 0 1.485-.015 2.084-.057.6-.043 1.114-.072 1.528-.115.485-.042.899-.1 1.256-.17.043-.23.1-.486.171-.772.043-.257.086-.542.114-.856.029-.314.058-.642.058-.985 0-1.042-.086-1.913-.243-2.627-.157-.713-.371-1.284-.614-1.727-.243-.442-.528-.756-.828-.942-.314-.186-.628-.285-.928-.285-.3 0-.614.114-.928.328-.314.228-.585.642-.828 1.256-.242.614-.442 1.485-.613 2.598-.143 1.113-.229 2.57-.229 4.354zm28.051 8.35V28.341l-12.476-9.878v23.995h12.476zm15.429 0V28.341l-12.276-9.878v23.995h12.276z" fill="#292F36"/></svg>