<svg width="146" height="45" fill="none" xmlns="http://www.w3.org/2000/svg"><path d="M21.224 8.957l1.071-.228c.271 0 .5.057.657.171.157.115.242.229.242.329s-.028.257-.071.442c-.043.186-.443 2.099-1.185 5.71a781.175 781.175 0 00-1.627 8.08c1.656-2.256 3.597-5.025 5.81-8.323 2.212-3.297 3.511-5.481 3.882-6.566.114-.343.271-.6.457-.785.186-.186.357-.3.5-.328a3.52 3.52 0 01.67-.057c.3 0 .657.07 1.071.2.414.128.628.342.628.656 0 .571-.856 2.241-2.555 4.982-1.699 2.74-3.654 5.652-5.852 8.736-2.199 3.083-4.026 5.524-5.496 7.323-.257.314-.585.485-.957.485a4.04 4.04 0 01-1.184-.2c-.414-.128-.628-.357-.628-.7 0-1.07.942-6.237 2.826-15.473-1.613 2.084-3.569 4.996-5.867 8.722-2.398 3.854-3.754 6.252-4.068 7.166-.171.556-.371.885-.6.97-.157.072-.328.1-.5.1l-1.156.129a1.11 1.11 0 01-.628-.186c-.185-.128-.285-.257-.285-.4 0-.385.542-1.555 1.613-3.497 1.07-1.941 2.341-4.054 3.783-6.338a120.713 120.713 0 014.51-6.652c1.57-2.155 2.784-3.611 3.64-4.34a.853.853 0 01.6-.227l.7.1zm17.158 9.679c.742 0 1.113.257 1.113.756 0 .271-.057.471-.185.6-.129.128-.4.542-.814 1.27-.414.714-.87 1.628-1.37 2.755-.5 1.114-.828 2.07-.97 2.855-.03.1-.044.229-.044.414 0 .543.143.8.443.8.3 0 .642-.143 1.042-.414.4-.286.756-.571 1.07-.9a29.3 29.3 0 00.914-.97c.3-.329.471-.529.528-.571a.424.424 0 01.257-.072c.186 0 .3.143.343.428.043.286.057.571.057.886 0 .314-.029.513-.086.628-.285.556-.9 1.227-1.87 2.012-.956.785-1.841 1.17-2.626 1.17-.785 0-1.37-.242-1.727-.713s-.557-1.013-.557-1.584c0-.586.1-1.085.3-1.528a13.029 13.029 0 01-2.784 2.684c-1.056.728-1.899 1.099-2.57 1.099-.67 0-1.198-.2-1.627-.6-.542-.5-.8-1.184-.8-2.07 0-.884.2-1.77.6-2.669.4-.885.914-1.713 1.556-2.44a14.93 14.93 0 012.127-2.013c1.613-1.27 3.112-1.899 4.482-1.899.529 0 .957.086 1.285.257.328.171.543.4.628.657.229-.357.428-.571.6-.671.128-.114.37-.157.685-.157zm-1.941 1.627c-1.67 0-3.398.928-5.182 2.784a13.225 13.225 0 00-1.756 2.383c-.542.928-.8 1.556-.8 1.899 0 .343.1.514.3.514.272 0 1.028-.543 2.285-1.613 1.256-1.07 2.084-1.87 2.483-2.384.457-.571 1.342-1.77 2.67-3.583z" fill="#292F36"/><path d="M49.487 10.899l.6.143c.086 0 .171.042.228.128.072.086.1.171.1.243 0 .071-.1.285-.314.628-.214.342-.442.728-.728 1.156-.285.428-.428.67-.442.714a24.808 24.808 0 011.613-.086c.314 0 .528.029.656.072.114.042.257.17.4.37.157.2.285.357.414.457.128.1.186.257.186.457s-.129.386-.372.514a1.952 1.952 0 01-.799.257c-2.27.228-3.512.343-3.74.357-.785 1.213-1.898 3.097-3.312 5.653-1.413 2.555-2.17 4.168-2.255 4.81-.043.3-.057.528-.057.714 0 .385.2.57.6.57.4 0 .842-.156 1.327-.456a10.92 10.92 0 001.342-1c1.099-.97 1.684-1.47 1.756-1.47.257 0 .385.443.385 1.314 0 .47-.214.9-.657 1.285-.985.842-1.813 1.484-2.483 1.912-.671.429-1.342.643-2.027.643a1.94 1.94 0 01-.414-.043c-.785-.143-1.356-.428-1.713-.857-.371-.428-.543-.999-.543-1.713 0-.713.214-1.598.643-2.626a32.595 32.595 0 011.598-3.283 114.5 114.5 0 013.155-5.325l-.557.072c-1.127.128-1.784.185-1.97.185h-.128c-.285 0-.557-.057-.814-.171-.257-.114-.4-.257-.4-.414 0-.171.072-.328.215-.485.143-.157.228-.286.257-.372.071-.214.328-.456.77-.713.443-.257.771-.4 1-.414l.656-.043c.215-.014.443-.014.7-.029.257-.014.457-.014.6-.028l1.313-.057c.813-1.228 1.384-2.027 1.684-2.37.314-.357.485-.542.528-.57.043-.03.143-.058.3-.058l.7-.071z" fill="#292F36"/><path d="M58.267 25.16c.185 0 .3.142.342.427.043.286.057.571.057.885 0 .314-.028.514-.085.628-.286.543-.9 1.214-1.856 1.999-.956.785-1.87 1.185-2.726 1.185a2.536 2.536 0 01-1.47-.471c-.443-.314-.672-.871-.672-1.656 0-.785.215-1.57.629-2.327-2.427 3.04-4.311 4.554-5.696 4.554a1.7 1.7 0 01-1.328-.586c-.342-.385-.5-.785-.5-1.213 0-.414.058-.842.172-1.285.114-.442.243-.842.371-1.199.129-.357.329-.785.586-1.299.256-.514.456-.885.57-1.127.115-.243.329-.586.614-1.057.286-.47.643-1.113 1.1-1.912.456-.8.827-1.4 1.127-1.785.3-.385.585-.585.87-.585.286 0 .53.114.743.343.214.228.328.428.328.57 0 .143-.328.8-.984 1.97-1.928 3.498-2.898 5.525-2.898 6.11 0 .143.057.214.157.214.47 0 1.641-1.014 3.497-3.04 1.856-2.027 2.94-3.326 3.24-3.897.3-.571.571-1.057.857-1.442.271-.386.485-.628.628-.714.414-.271.956-.414 1.627-.442.114 0 .186 0 .243.014.057.014.128.1.2.243a.9.9 0 01.114.37c-.086.272-.471 1-1.17 2.185-.686 1.184-1.071 1.855-1.142 1.998-1.157 2.384-1.728 3.94-1.728 4.654 0 .414.157.613.471.613.571-.07 1.257-.528 2.056-1.356.3-.3.585-.613.87-.927.286-.314.472-.5.529-.543a.344.344 0 01.257-.1z" fill="#292F36"/><path d="M62.506 21.776c2.298-2.612 4.268-3.925 5.881-3.925.4 0 .728.114.985.357.257.242.385.542.385.927 0 .386-.27 1.014-.813 1.913a30.854 30.854 0 01-1.5 2.256c-.242.314-.513.47-.827.47a.848.848 0 01-.714-.342 1.265 1.265 0 01-.257-.785c0-.671.357-1.442 1.085-2.284l-.028-.029c-.329.029-1.114.671-2.398 1.899a95.03 95.03 0 00-3.255 3.326 51.551 51.551 0 00-2.912 3.583c-.3.414-.557.628-.77.628-.215 0-.486-.072-.829-.2-.342-.128-.557-.228-.628-.285-.071-.058-.114-.157-.114-.3 0-.129.043-.3.114-.471.071-.186.228-.443.428-.771.2-.328.529-.87.957-1.613a227.77 227.77 0 011.984-3.369c.9-1.499 1.427-2.412 1.613-2.726.371-.643.67-1.114.913-1.4.443-.556 1.185-.827 2.227-.827.229 0 .357.143.357.442 0 .457-.428 1.328-1.27 2.584l-.614.942zm15.745-2.969c0 .642-.257 1.213-.785 1.699-.528.485-1.113.728-1.784.728-.214 0-.357-.058-.428-.157-.072-.1-.1-.243-.1-.4 0-.157.014-.328.057-.485-.357.114-.742.3-1.17.542-.429.243-.957.6-1.585 1.085s-.942.828-.942 1.07c0 .072.114.115.342.115.229 0 .586-.086 1.057-.243.47-.157.813-.243.999-.243.185 0 .314.015.371.029.128.071.257.214.414.442.143.229.214.414.214.543 0 .128-.128.3-.385.514a2.826 2.826 0 01-.857.485c-.328.114-.542.2-.642.257-2.056 1.156-3.084 1.941-3.084 2.37 0 .756.643 1.141 1.942 1.141.828 0 1.67-.256 2.498-.785a17.5 17.5 0 001.927-1.37c.57-.457.928-.742 1.085-.856.157-.115.271-.157.342-.157.257 0 .386.285.386.856s-.029.942-.1 1.114c-.072.185-.257.4-.585.67-2.084 1.699-4.069 2.555-5.924 2.555-1 0-1.785-.142-2.384-.413-1.1-.5-1.642-1.257-1.642-2.284 0-1.342.928-2.37 2.798-3.055-.371-.171-.614-.371-.714-.643-.114-.256-.157-.67-.157-1.241 0-.571.272-1.17.8-1.813a6.21 6.21 0 011.955-1.57c1.713-.928 3.255-1.385 4.597-1.385.328 0 .642.071.985.228.342.157.5.372.5.657zm33.318-9.935h.185c.057 0 .1 0 .115.014.014.014.028.014.057.029.028 0 .042.014.071.043a.804.804 0 00.2.128c.114.086.171.186.171.3 0 .114-.114.357-.342.728-.229.37-.814 1.27-1.771 2.726a315.08 315.08 0 00-5.866 9.307c-2.984 4.968-4.497 7.466-4.525 7.494-.029.029-.043.058-.058.086-.014.057-.042.086-.114.086l-.2-.043-.4.1-.228-.043-.242.043h-.086l-.814.114c-.485 0-.728-.171-.728-.5 0-.142.043-.314.129-.514.3-.713 1.827-3.297 4.568-7.78a218.89 218.89 0 01-5.339.072l-3.14-.014c-.514.828-1.228 1.998-2.127 3.526-1.942 3.326-2.97 4.996-3.098 5.024-.128.029-.228.058-.314.058-.085 0-.157-.043-.214-.143-.071-.086-.114-.143-.143-.143a.412.412 0 00-.157.057c-.071.043-.185.057-.342.057l-.343-.014-.128-.086c-.015 0-.029.015-.043.043-.014.029-.057.043-.114.043-.414 0-.628-.171-.628-.528 0-.229.085-.543.242-.928.172-.386.386-.8.657-1.242.271-.443.956-1.513 2.084-3.183 1.113-1.67 1.67-2.513 1.67-2.527-.186-.014-.4-.014-.642-.028-.5 0-.843-.015-1.057-.057-.556-.1-.942-.557-1.142-1.37-.114-.4-.157-.657-.142-.786 0-.257.114-.4.342-.4l.386.1c.2.015.656.029 1.399.072.742.043 1.27.057 1.598.057l.828-.029c1.27-1.984 2.784-4.24 4.554-6.752-1.285 1.057-2.712 1.585-4.282 1.585-.743 0-1.385-.171-1.913-.528-.543-.357-.8-.814-.8-1.356 0-.543.2-.971.614-1.3.414-.313.8-.47 1.17-.47.372 0 .557.057.557.17 0 .044-.057.087-.157.13-.1.056-.157.1-.157.142 0 .157.172.3.514.414.343.114.728.186 1.156.186.429 0 .942-.129 1.57-.371.629-.243 1.271-.571 1.942-.957.942-.542 1.684-1 2.227-1.356.314-.157.6-.228.885-.228.285 0 .471.028.599.1a.895.895 0 01.272.185c.057.057.128.143.185.243.071.1.129.185.2.228.057.057.1.114.1.186 0 .071-.043.171-.114.328-.072.143-.443.742-1.114 1.784-.67 1.042-1.541 2.37-2.598 3.983a276.469 276.469 0 00-2.312 3.569c2.612 0 5.424-.043 8.45-.143 3.683-5.81 5.625-8.85 5.824-9.136.2-.285.386-.47.557-.557.171-.085.371-.128.614-.128l1.242.1zm4.767 9.735c.3 0 .6.129.899.4.314.271.457.67.457 1.213s-.185 1.242-.571 2.113a14.062 14.062 0 01-1.57 2.64 22.812 22.812 0 01-2.184 2.513 11.62 11.62 0 01-2.57 1.927c-.927.5-1.755.756-2.512.756-.756 0-1.356-.242-1.813-.713-.457-.471-.685-1.128-.685-1.97 0-.842.214-1.784.628-2.798a9.993 9.993 0 011.599-2.712 15.66 15.66 0 012.127-2.113c1.584-1.284 2.983-1.912 4.182-1.912.543 0 .942.128 1.214.4.1.085.142.17.142.228v.085c.157-.057.371-.057.657-.057zm-1.47 1.942h-.1c-.343 0-.514-.243-.514-.743-.714.229-1.456.642-2.241 1.228a10.756 10.756 0 00-2.099 2.084c-1.256 1.599-1.884 2.955-1.898 4.054 0 .542.2.813.599.813.4 0 1-.27 1.785-.785.785-.514 1.57-1.27 2.355-2.255.771-.97 1.356-1.827 1.742-2.54.385-.715.585-1.2.585-1.471-.014-.257-.086-.386-.214-.386zm2.511 9.292l-.713-.028h-.257a.982.982 0 01-.314-.172c-.115-.085-.2-.157-.257-.185-.057-.029-.086-.114-.086-.214 0-.1.043-.286.114-.529 1.899-4.182 3.74-7.537 5.524-10.035.2-.27.514-.485.943-.628a4.017 4.017 0 011.27-.214c.243 0 .371.186.371.571 0 .114-.043.257-.114.428-.071.186-.271.471-.585.886-.314.413-.685.884-1.114 1.398-.428.514-.671.828-.728.914 1.342-1.385 2.541-2.412 3.626-3.098 1.085-.67 1.856-1.013 2.341-1.013.485 0 .856.143 1.113.414s.386.57.386.885c0 .314-.029.585-.072.785a2.614 2.614 0 01-.242.657c-.114.228-.214.428-.3.585a6.507 6.507 0 01-.414.628c-.2.257-.328.442-.4.542-.071.1-.228.286-.456.557a7.543 7.543 0 00-.372.457c.272-.271.657-.671 1.142-1.213.486-.543.9-.985 1.242-1.342a22.06 22.06 0 011.271-1.228c.514-.457.985-.828 1.413-1.099 1.056-.657 2.127-1 3.212-1 .371 0 .685.115.942.358.257.242.385.514.385.842 0 .328-.399 1.113-1.185 2.34-.785 1.229-1.584 2.47-2.369 3.712-.785 1.242-1.185 2.027-1.185 2.355 0 .443.086.714.243.8.171.086.371.114.599.1.229-.014.571-.171.985-.457.428-.285.8-.57 1.128-.885a50.69 50.69 0 001.499-1.413c.1-.086.2-.129.328-.129.186 0 .3.143.343.429.042.285.057.57.057.885 0 .314-.029.514-.086.628-.285.542-.913 1.213-1.87 2.012-.971.786-1.898 1.185-2.783 1.185-.115 0-.186 0-.229-.014-.999-.1-1.698-.371-2.084-.828-.385-.457-.571-1-.571-1.613 0-.614.214-1.385.642-2.27.429-.885.886-1.698 1.399-2.412.514-.714.971-1.37 1.399-1.956.429-.585.643-.899.643-.942 0-.043-.043-.071-.115-.071-.299 0-.97.485-2.027 1.47-1.784 1.67-3.325 3.283-4.624 4.825-.343.414-1.157 1.442-2.427 3.112-.143.2-.386.3-.7.3a2.79 2.79 0 01-.985-.186c-.342-.128-.513-.285-.513-.471 0-.1.77-1.47 2.326-4.111s2.327-4.083 2.327-4.311c0-.243-.143-.357-.428-.357-.286 0-.885.428-1.784 1.285-2.47 2.355-4.383 4.71-5.739 7.037-.085.143-.257.357-.514.643-.257.285-.485.4-.571.4z" fill="#292F36"/><path d="M145.685 18.807c0 .642-.257 1.213-.785 1.699-.528.485-1.114.728-1.785.728-.214 0-.356-.058-.428-.157-.071-.1-.1-.243-.1-.4 0-.157.015-.328.057-.485-.356.114-.742.3-1.17.542-.428.243-.957.6-1.585 1.085s-.942.828-.942 1.07c0 .072.114.115.343.115.228 0 .585-.086 1.056-.243.471-.157.814-.243.999-.243.186 0 .314.015.372.029.128.071.256.214.414.442.142.229.214.414.214.543 0 .128-.129.3-.386.514a2.826 2.826 0 01-.856.485c-.329.114-.543.2-.643.257-2.055 1.156-3.083 1.941-3.083 2.37 0 .756.642 1.141 1.941 1.141.828 0 1.671-.256 2.498-.785a17.516 17.516 0 001.928-1.37c.571-.457.927-.742 1.084-.856.157-.115.272-.157.343-.157.257 0 .385.285.385.856s-.028.942-.1 1.114c-.071.185-.256.4-.585.67-2.084 1.699-4.068 2.555-5.924 2.555-.999 0-1.784-.142-2.384-.413-1.099-.5-1.641-1.257-1.641-2.284 0-1.342.928-2.37 2.798-3.055-.371-.171-.614-.371-.714-.643-.114-.256-.157-.67-.157-1.241 0-.571.271-1.17.799-1.813a6.206 6.206 0 011.956-1.57c1.713-.928 3.255-1.385 4.596-1.385.329 0 .643.071.985.228.343.157.5.372.5.657zM.982 33.795a74.22 74.22 0 0011.477 3.712 86.927 86.927 0 0011.748 2.084c1.97.27 3.954.3 5.91.485 1.984.014 3.954.171 5.924.057l2.955-.071c.984-.015 1.97-.143 2.954-.2.985-.086 1.97-.129 2.94-.257l2.927-.414c3.926-.428 7.737-1.342 11.534-2.441 3.84-1.056 7.466-2.455 11.305-3.911 3.926-1.442 8.18-2.384 12.49-1.927 2.128.27 4.269.956 6.01 2.212 1.756 1.242 3.012 3.012 3.811 4.868-1.198-1.656-2.697-3.012-4.425-3.854-1.727-.842-3.625-1.185-5.51-1.128-3.81.057-7.565 1.328-11.09 2.926a94.62 94.62 0 01-11.378 4.697c-3.94 1.27-8.008 2.284-12.133 2.797-8.208 1.085-16.616 1.1-24.723-.542-4.069-.742-8.037-1.898-11.877-3.369C8.02 37.992 4.294 36.208.982 33.795zm136.507-23.767c-3.183-1.356-6.423-2.412-9.707-3.24-3.268-.871-6.58-1.485-9.906-1.913-1.656-.257-3.34-.314-4.996-.514-1.67-.043-3.326-.214-4.996-.143-.828.015-1.67.015-2.498 0-.828 0-1.67.086-2.498.115-.828.057-1.67.071-2.498.157l-2.484.3c-3.326.27-6.552.956-9.778 1.798-3.27.785-6.367 1.898-9.664 3.012-3.383 1.128-7.052 1.813-10.734 1.299-1.813-.3-3.64-.942-5.082-2.084-1.47-1.128-2.47-2.67-3.084-4.283 1.014 1.414 2.27 2.57 3.712 3.284 1.442.713 3.026 1.013 4.61.999 3.198 0 6.367-1.028 9.365-2.313 3.054-1.456 6.409-2.74 9.75-3.797C90.368 1.692 93.88.921 97.391.55c7.009-.742 14.175-.571 21.041 1.056 3.44.728 6.794 1.842 10.006 3.212 3.226 1.399 6.338 3.026 9.05 5.21z" fill="#292F36"/></svg>