<svg width="103" height="103" fill="none" xmlns="http://www.w3.org/2000/svg"><path d="M51.442 101.606c27.861 0 50.447-22.585 50.447-50.446C101.889 23.3 79.303.714 51.442.714 23.582.714.996 23.299.996 51.16c0 27.86 22.586 50.446 50.446 50.446z" fill="#fff"/><path d="M51.443 102.32c-28.206 0-51.16-22.954-51.16-51.16C.283 22.954 23.237 0 51.443 0c28.207 0 51.16 22.953 51.16 51.16 0 28.206-22.953 51.16-51.16 51.16zm0-100.893C24.022 1.427 1.711 23.74 1.711 51.16c0 27.421 22.31 49.732 49.732 49.732s49.733-22.31 49.733-49.732c0-27.421-22.311-49.733-49.733-49.733z" fill="#292F36"/><path d="M58.637 5.838c.343.029.642.043.885.043l-.029.228c-.4.058-.742.357-1.013.928l-3.397 6.795-.1-.014-.086-.014-2.155-7.58c-.143-.5-.386-.771-.728-.814l.028-.228c.314.057.728.1 1.242.157.671.057 1.17.1 1.499.1l-.029.228c-.3-.014-.514 0-.642.043s-.2.157-.214.3c-.014.128.014.314.086.556l1.584 5.796 2.355-4.74c.2-.385.3-.699.329-.927.028-.243-.043-.428-.2-.557-.157-.128-.414-.2-.757-.243l.029-.228c.414.071.856.128 1.313.171zM68.23 8.85a.407.407 0 00-.344.172 2.31 2.31 0 00-.285.57l-2.041 5.425c-.1.271-.157.485-.157.628 0 .143.043.257.142.343.1.085.286.185.543.3l-.086.213a41.304 41.304 0 00-1.37-.556c-.628-.243-1.1-.4-1.413-.5l.085-.214c.272.086.471.129.6.129a.426.426 0 00.342-.172c.086-.114.186-.3.286-.57l2.041-5.425c.1-.271.157-.485.157-.628a.423.423 0 00-.142-.343c-.1-.085-.286-.185-.543-.3l.086-.214c.3.129.756.314 1.384.557.586.228 1.057.385 1.4.485l-.086.214c-.257-.085-.457-.128-.6-.114zm12.704 7.551a.55.55 0 00-.414.1c-.129.086-.286.257-.457.5l-4.14 5.61-.214-.157.557-9.022-3.669 4.968a2.758 2.758 0 00-.342.6.534.534 0 00.043.442c.071.143.242.3.485.5l-.143.185a20.591 20.591 0 00-.942-.742c-.371-.271-.67-.486-.9-.614l.144-.186c.228.157.414.243.556.257a.55.55 0 00.414-.1c.129-.1.286-.257.457-.5l3.369-4.567c.171-.243.285-.428.328-.557a.425.425 0 00-.043-.37c-.071-.115-.214-.258-.442-.443l.142-.186c.186.171.472.4.857.671.285.214.528.385.757.514l-.457 7.565 2.969-4.025c.171-.243.3-.443.343-.6a.594.594 0 00-.043-.442c-.072-.143-.243-.314-.486-.5l.143-.185c.214.185.528.428.942.742.371.271.671.485.9.614l-.143.185c-.243-.142-.428-.242-.571-.257zm4.782 6.439c.371-.272.757-.572 1.17-.943.357.543.986 1.442 1.885 2.712a166.163 166.163 0 001.927 2.655c-.485.286-.9.543-1.27.8a13.6 13.6 0 00-.757.585l-.157-.214c.457-.4.77-.728.956-.97.186-.244.257-.5.243-.772-.014-.27-.186-.6-.457-.999l-.371-.514-5.41 3.854c-.257.186-.443.357-.528.486a.508.508 0 00-.057.457c.043.157.17.385.356.67l-.185.143a24.55 24.55 0 00-.97-1.413c-.457-.642-.8-1.1-1.028-1.385l.185-.142c.214.27.385.456.528.556a.5.5 0 00.443.086c.157-.043.37-.157.628-.343l5.41-3.854-.371-.514c-.286-.4-.543-.642-.785-.756a1.029 1.029 0 00-.8-.029c-.285.1-.7.286-1.227.585l-.157-.214c.214-.114.47-.285.799-.528zm2.74 19.812l-.228.072a16.67 16.67 0 00-.372-1.2 27.07 27.07 0 00-.514-1.413l.229-.07c.1.27.214.47.3.57.1.1.228.129.37.072.13-.043.286-.143.472-.3l1.584-1.3-.899-2.669-1.328-.057c-.428-.028-.756 0-.984.086-.229.086-.372.214-.429.4-.043.185-.014.456.086.785l-.228.071a22.1 22.1 0 00-.4-1.285 9.063 9.063 0 00-.314-.813l.228-.072c.2.343.628.528 1.256.543l7.594.342.057.172-6.052 5.039c-.371.356-.514.685-.428 1.027zm4.953-6.066l-3.74-.157.842 2.512 2.898-2.355zm-3.912 16.986c.143-.057.215-.128.215-.228 0-.057-.015-.1-.043-.143a5.109 5.109 0 00-.172-.242 3.373 3.373 0 01-.485-.843 2.613 2.613 0 01-.171-.97c-.014-.8.143-1.485.457-2.07a3.215 3.215 0 011.413-1.342c.614-.314 1.356-.471 2.227-.485.899-.015 1.684.128 2.355.442.67.314 1.199.743 1.57 1.313a3.47 3.47 0 01.571 1.928c0 .314-.028.6-.086.842a2.617 2.617 0 01-.242.642c-.1.186-.229.4-.4.628-.071.1-.114.186-.114.243 0 .143.243.243.713.285v.272c-.5-.029-1.398-.029-2.683 0v-.272a7.89 7.89 0 001.028-.242c.27-.086.5-.214.7-.371.27-.229.499-.529.656-.9.157-.37.228-.742.228-1.142a2.032 2.032 0 00-.528-1.342c-.343-.385-.828-.67-1.442-.885-.628-.2-1.341-.3-2.17-.285-.942.014-1.698.128-2.298.343-.6.214-1.027.528-1.313.942-.285.414-.414.942-.4 1.584.015.471.143.87.386 1.213.1.143.185.229.285.272.086.043.214.057.371.057l1.128-.014c.328 0 .557-.043.714-.1a.487.487 0 00.3-.343c.057-.157.085-.414.085-.757h.229c-.015.386-.029.928-.015 1.656.015.543.029.957.058 1.214h-.229a.915.915 0 00-.1-.386c-.043-.071-.143-.128-.271-.157a2.638 2.638 0 00-.642-.028l-2.313.042v-.228c.129-.057.286-.086.428-.143zM87.8 65.72c-.414-.129-.9-.257-1.456-.371.185-.5.457-1.342.842-2.541a87.96 87.96 0 00.985-3.24l.228.071c-.071.271-.1.471-.1.614a.433.433 0 00.186.328c.114.086.314.171.585.257l5.524 1.742c.286.085.486.128.629.128a.407.407 0 00.342-.171c.086-.114.171-.3.271-.557l.229.071c-.257.728-.6 1.799-1.057 3.226-.342 1.085-.585 1.87-.7 2.341-.47-.2-.898-.37-1.298-.485a6.627 6.627 0 00-.7-.185l.086-.257c.5.1.885.142 1.142.142a.872.872 0 00.642-.257c.172-.157.314-.442.443-.827l.285-.928c.086-.272.129-.471.115-.6a.442.442 0 00-.172-.328c-.114-.086-.3-.172-.585-.257l-2.626-.828-.229.742c-.114.371-.085.657.1.857.186.2.386.342.614.442.228.1.371.171.428.2l-.085.257c-.357-.143-.7-.271-1.043-.371l-.528-.157a22.414 22.414 0 00-1.598-.428l.085-.257c.057.014.243.042.557.114.314.057.585.028.8-.086.213-.114.356-.328.456-.628l.228-.742-2.683-.842c-.286-.086-.486-.129-.628-.129a.365.365 0 00-.329.172c-.085.114-.17.3-.257.57l-.256.814c-.143.471-.2.842-.143 1.114.043.285.185.513.428.713.243.186.614.4 1.114.628l-.086.257c-.171-.128-.443-.214-.785-.328zm-4.068 17.515a.456.456 0 00-.015-.386c-.057-.128-.2-.285-.414-.5l-4.196-4.01c-.214-.2-.386-.329-.514-.386a.455.455 0 00-.386 0c-.128.057-.285.186-.485.386l-.171-.157c.271-.243.614-.6 1.056-1.042.457-.486.8-.857 1.014-1.1l.17.157a2.657 2.657 0 00-.356.5.456.456 0 00.014.385c.057.129.2.286.414.5l4.197 4.011c.214.2.385.329.514.386a.455.455 0 00.385 0c.129-.057.286-.186.486-.386l.17.157c-.242.214-.599.571-1.055 1.057-.443.456-.771.828-1 1.099l-.17-.157c.17-.214.285-.386.342-.514zM71.84 91.942a.522.522 0 00.072-.414c-.029-.157-.129-.357-.286-.628l-3.54-6.01.228-.142 8.08 4.04-3.126-5.31c-.157-.257-.286-.443-.414-.543a.589.589 0 00-.429-.129c-.157.015-.37.1-.642.243l-.128-.2c.257-.114.6-.314 1.042-.57.4-.243.7-.429.913-.586l.114.2c-.228.143-.385.285-.456.414a.523.523 0 00-.072.414c.029.157.129.357.286.628l2.883 4.896c.143.257.271.428.386.514.114.086.228.129.37.1.13-.029.329-.1.572-.228l.114.2c-.228.114-.543.285-.957.528-.3.17-.556.342-.77.485L69.3 86.46l2.54 4.31c.157.258.286.443.414.543.114.1.257.143.428.129.172-.015.386-.1.657-.243l.114.2c-.257.114-.6.314-1.042.57-.4.243-.7.429-.913.586l-.115-.2c.215-.157.371-.3.457-.414zm-7.85 1.87c.1.443.228.928.4 1.442-.643.114-1.714.343-3.227.657-1.513.328-2.57.57-3.197.728a16.129 16.129 0 00-.243-1.485c-.085-.385-.157-.7-.242-.928l.256-.057c.186.585.357 1 .514 1.27.157.272.357.443.614.529.257.085.628.071 1.1-.029l.613-.128-1.399-6.495c-.071-.314-.143-.543-.242-.671-.1-.129-.215-.214-.386-.228-.171-.029-.428 0-.77.057l-.044-.229c.4-.057.971-.171 1.685-.328.756-.171 1.327-.3 1.684-.4l.043.229c-.343.085-.571.171-.714.257a.53.53 0 00-.257.37c-.028.158-.014.4.058.715l1.398 6.494.614-.128c.471-.1.814-.243 1.014-.428.2-.186.314-.429.342-.728.029-.3.014-.757-.057-1.356l.257-.057c.043.228.1.542.186.927zm-18.943-4.011c.043-.442.057-.942.057-1.499.528.072 1.413.157 2.67.271 1.484.129 2.611.229 3.382.272l-.014.228c-.286-.014-.485 0-.614.043a.44.44 0 00-.285.243c-.057.128-.1.342-.129.628l-.514 5.78c-.028.286-.014.5.015.643a.402.402 0 00.242.3c.129.057.329.114.6.143l-.014.228a129.6 129.6 0 00-3.37-.328 89.506 89.506 0 00-2.44-.186c.1-.5.171-.956.2-1.37.028-.3.043-.543.028-.728l.271.028c.015.514.043.885.115 1.142a.867.867 0 00.385.571c.186.129.5.215.9.243l.97.086c.285.028.485.014.614-.015a.405.405 0 00.285-.242c.057-.129.1-.343.129-.628l.242-2.741-.77-.072c-.386-.028-.657.058-.814.286-.143.228-.257.457-.3.7-.057.242-.085.4-.1.47l-.27-.028c.056-.385.099-.742.142-1.1l.043-.556c.028-.4.057-.942.085-1.656l.272.029c0 .057.014.242.014.57.014.33.085.586.257.757.157.186.4.286.713.314l.771.072.243-2.798a2.23 2.23 0 00-.014-.642.405.405 0 00-.243-.286c-.129-.057-.328-.1-.6-.128l-.856-.072c-.485-.042-.856-.014-1.128.1-.257.1-.456.3-.6.571-.142.271-.256.685-.37 1.228l-.272-.029c0-.214.029-.5.072-.842zm-11.233-5.296c.214-.043.456 0 .713.114.3.129.5.314.614.557.114.257.129.614.057 1.085l-.214 1.17a9.194 9.194 0 00-.128.971c-.014.229.043.443.142.628.1.186.286.329.557.443l1.028.428 1.042-2.484c.114-.271.171-.47.186-.614a.426.426 0 00-.143-.356c-.1-.1-.271-.2-.528-.315l.085-.214c.329.157.771.357 1.356.6.614.257 1.085.442 1.4.542l-.086.215a2.651 2.651 0 00-.6-.157c-.143 0-.257.042-.342.157-.1.1-.2.285-.315.556l-2.24 5.353c-.115.271-.172.471-.186.614a.427.427 0 00.143.357c.1.1.27.2.528.328l-.086.214c-.3-.142-.728-.342-1.299-.585-.285-.114-.585-.243-.928-.385-.342-.143-.57-.229-.7-.286-.556-.243-.998-.514-1.327-.842-.328-.328-.514-.671-.6-1.042a1.678 1.678 0 01.115-1.085 2.135 2.135 0 011.542-1.256c.4-.086.885-.072 1.413.057l-.129-.071c-.3-.186-.528-.372-.67-.571a1.304 1.304 0 01-.272-.629c-.043-.228-.028-.513.029-.856l.2-1.213c.042-.243.071-.429.071-.571a.78.78 0 00-.057-.343.347.347 0 00-.214-.185.446.446 0 00-.329-.029c-.1.029-.242.1-.428.2l-.114-.186c.257-.157.5-.27.714-.314zm.713 5.082a1.365 1.365 0 00-.828.385c-.214.215-.4.5-.556.871-.243.585-.3 1.1-.143 1.513.157.414.542.757 1.185 1.028.228.1.4.143.542.129a.446.446 0 00.343-.172c.1-.114.2-.3.3-.556l1.113-2.656-.728-.3c-.471-.2-.885-.285-1.228-.242zm-11.847-3.14a.43.43 0 00.37-.058c.115-.07.272-.228.457-.456l3.583-4.568c.186-.228.3-.414.343-.542a.426.426 0 00-.043-.372 2.336 2.336 0 00-.428-.456l.142-.186c.272.243.643.557 1.142.942.529.414.928.714 1.2.9l-.143.185c-.229-.171-.414-.271-.543-.3a.388.388 0 00-.37.057c-.115.072-.272.229-.458.457l-3.583 4.568c-.185.228-.3.414-.342.542a.426.426 0 00.043.371c.071.115.214.272.428.457l-.143.186a42.984 42.984 0 00-1.156-.957c-.5-.385-.9-.685-1.185-.885l.143-.185c.243.157.414.257.542.3zm-9.222-10.164c-.058-.642.085-1.284.414-1.898.342-.628.856-1.185 1.57-1.713.7-.5 1.399-.828 2.127-.957.728-.128 1.399-.085 2.027.157a3.4 3.4 0 011.57 1.242c.442.6.685 1.228.742 1.87.057.643-.085 1.285-.414 1.899-.342.628-.856 1.184-1.57 1.713-.7.5-1.399.828-2.127.956-.714.128-1.399.086-2.027-.157a3.463 3.463 0 01-1.57-1.228c-.443-.613-.685-1.241-.742-1.884zm2.14 2.541c.5.1 1.071.057 1.7-.143.628-.2 1.256-.528 1.912-1.013.657-.471 1.17-.985 1.528-1.528.37-.542.57-1.084.6-1.598a2.01 2.01 0 00-.358-1.356 1.89 1.89 0 00-1.199-.757c-.5-.1-1.07-.057-1.698.143-.628.2-1.257.528-1.913.999-.657.471-1.17.985-1.528 1.542-.37.542-.57 1.07-.613 1.598a2.01 2.01 0 00.356 1.356c.3.4.7.657 1.214.757zm-1.041-19.727c.171.128.3.342.385.628.1.3.086.585-.028.828-.115.257-.386.5-.8.742l-1.042.585a9.251 9.251 0 00-.813.528 1.118 1.118 0 00-.386.514c-.071.2-.071.428.014.714l.329 1.07 2.57-.799c.285-.085.47-.171.584-.257a.459.459 0 00.186-.328c.014-.129-.029-.343-.1-.614l.228-.071c.086.342.215.828.414 1.427.2.643.357 1.114.471 1.413l-.228.072c-.1-.272-.186-.457-.271-.557a.447.447 0 00-.343-.171 1.85 1.85 0 00-.628.128l-5.538 1.713c-.286.086-.471.171-.586.257a.459.459 0 00-.185.328c-.014.143.028.343.1.614l-.229.072c-.071-.315-.2-.771-.385-1.37-.086-.286-.2-.615-.314-.957-.114-.343-.2-.585-.243-.714-.185-.585-.242-1.1-.2-1.556.043-.457.186-.828.414-1.127.229-.3.528-.5.9-.614.285-.086.6-.114.942-.072.342.043.67.186 1.013.443.343.257.628.628.871 1.127l-.014-.142c-.043-.357-.057-.643 0-.885.057-.243.157-.443.3-.614.156-.171.385-.357.685-.528l1.056-.628c.214-.114.385-.229.485-.314a.925.925 0 00.229-.257.392.392 0 00.014-.286.488.488 0 00-.186-.271 2.052 2.052 0 00-.428-.2l.071-.214c.286.1.529.214.686.343zm-3.412 3.825a1.392 1.392 0 00-.828-.385c-.3-.029-.642.014-1.028.142-.613.186-1.027.486-1.256.871-.228.386-.228.914-.028 1.556.071.229.157.4.242.5.086.1.214.157.357.157s.357-.043.614-.114l2.74-.857-.228-.756c-.142-.514-.342-.885-.585-1.114zm2.313-17.372c.542-.243.87-.7 1.013-1.384a1.688 1.688 0 00-.028-.757 1.395 1.395 0 00-.4-.642c-.2-.186-.471-.315-.828-.372a1.467 1.467 0 00-.828.072c-.257.1-.514.257-.756.47a9.72 9.72 0 00-.843.857c-.356.4-.67.728-.942.957a2.913 2.913 0 01-.899.542c-.328.129-.7.143-1.113.072-.429-.086-.785-.243-1.042-.5a1.909 1.909 0 01-.529-.914 2.718 2.718 0 01-.014-1.127c.043-.243.1-.429.171-.6.072-.171.143-.3.229-.4.085-.1.171-.214.285-.328.143-.157.214-.271.243-.357.014-.071-.014-.128-.086-.185-.071-.057-.2-.1-.37-.157l.042-.257a41.1 41.1 0 002.341.5l-.043.256c-.4-.042-.77-.028-1.142.057a1.86 1.86 0 00-.928.471c-.257.229-.428.557-.5.957a1.5 1.5 0 00.03.756c.07.243.2.429.37.586.186.157.4.257.657.314.414.071.77.014 1.07-.186.3-.2.586-.457.857-.756.271-.3.443-.5.543-.6.4-.428.728-.757.999-1a2.62 2.62 0 01.9-.527c.327-.114.684-.129 1.07-.057.47.085.856.27 1.142.542.285.285.47.614.57 1.014.1.4.1.827.015 1.284-.071.371-.157.657-.286.885a2.688 2.688 0 01-.442.614c-.143.157-.214.271-.243.357-.014.071.014.128.086.186.071.056.2.114.371.157l-.043.256c-.414-.114-1.327-.3-2.74-.556l.042-.257c.8.071 1.456 0 1.999-.243zm-2.826-12.033c-.4-.215-.856-.414-1.37-.614.314-.557.842-1.528 1.556-2.912.713-1.37 1.213-2.341 1.484-2.927.471.3.9.557 1.285.757.343.186.642.314.87.414l-.128.243c-.57-.229-.999-.372-1.299-.414-.3-.057-.57 0-.8.142-.228.143-.456.429-.67.857l-.286.57 5.896 3.07c.285.157.514.228.67.243.158.014.3-.029.429-.143.128-.114.271-.328.443-.628l.214.114a31.14 31.14 0 00-.828 1.513 50.256 50.256 0 00-.771 1.542l-.214-.114c.143-.315.242-.557.257-.714a.503.503 0 00-.129-.443c-.114-.128-.3-.257-.585-.414l-5.895-3.083-.3.557c-.229.428-.329.77-.314 1.042.014.271.128.514.342.728.214.214.571.5 1.085.828l-.128.242a19.43 19.43 0 00-.814-.456zM20.71 17.115a9.64 9.64 0 00.585-.642l.171.171a.857.857 0 00-.114.528c.014.215.071.514.185.871l1.3 3.869 1.512 1.498c.215.2.372.343.5.4a.455.455 0 00.386 0c.128-.057.285-.186.5-.371l.17.171c-.27.243-.628.585-1.07 1.028a24.55 24.55 0 00-1.028 1.085l-.171-.171c.185-.215.314-.372.37-.5a.41.41 0 00-.013-.386c-.057-.128-.2-.3-.4-.5l-1.256-1.241-4.768-1.399c-.285-.086-.5-.114-.642-.1a.491.491 0 00-.314.129l-.172-.172c.229-.2.486-.428.743-.7.528-.541.913-.927 1.127-1.184l.172.171c-.386.386-.471.686-.257.9.085.085.2.142.37.2l4.012 1.241-1.056-3.154c-.157-.457-.314-.771-.486-.928-.157-.157-.328-.2-.514-.143-.185.057-.4.2-.656.443l-.172-.172c.343-.314.657-.628.985-.942zm8.636-5.752a.428.428 0 00-.1.37c.029.143.1.343.243.6l2.755 5.11c.142.258.257.429.37.529.1.1.23.128.358.114.128-.014.328-.1.57-.228l.757-.414c.428-.229.728-.471.885-.714.157-.243.214-.514.172-.842-.043-.329-.172-.743-.4-1.285l.242-.128c.1.228.243.513.429.856.214.385.47.814.785 1.285-.471.228-1.27.642-2.37 1.242-1.313.713-2.312 1.256-2.969 1.641l-.114-.2c.243-.142.414-.271.5-.37a.428.428 0 00.1-.372 2.16 2.16 0 00-.243-.6l-2.784-5.11c-.142-.257-.257-.428-.37-.528a.42.42 0 00-.358-.114c-.142.014-.328.085-.585.214l-.1-.214c.3-.129.742-.357 1.328-.685.556-.3.985-.543 1.284-.728l.115.2a2.48 2.48 0 00-.5.37zm17.384.913c.087.428.215.914.372 1.456-.528.086-1.399.243-2.627.485-1.47.286-2.569.514-3.325.686l-.043-.229c.27-.071.47-.128.585-.214a.423.423 0 00.2-.314 2.31 2.31 0 00-.057-.642L40.72 7.808c-.057-.285-.114-.485-.2-.614-.085-.128-.17-.2-.314-.214-.128-.028-.342-.014-.613.029l-.043-.229c.756-.128 1.87-.328 3.326-.613 1.127-.229 1.927-.386 2.384-.5.042.514.114.97.185 1.37.057.3.114.528.172.7l-.258.057c-.157-.485-.3-.842-.428-1.07a.934.934 0 00-.528-.443c-.228-.072-.528-.072-.942.014l-.956.186c-.272.057-.471.114-.586.185a.455.455 0 00-.214.314c-.014.143 0 .357.057.643l.529 2.712.756-.157c.386-.072.614-.243.7-.5.085-.257.114-.5.1-.742-.015-.243-.03-.4-.03-.471l.258-.057c.043.385.1.742.171 1.085l.114.542c.072.385.2.928.386 1.613l-.257.057c-.015-.057-.072-.228-.172-.542-.1-.314-.242-.529-.456-.657-.214-.129-.457-.157-.771-.1l-.757.143.543 2.755c.057.285.114.485.185.614a.454.454 0 00.314.214c.129.014.343 0 .614-.057l.842-.172c.471-.1.828-.228 1.057-.4.228-.17.356-.413.414-.713.057-.3.057-.728.014-1.285l.257-.057c.043.214.086.486.157.828z" fill="#292F36"/><path d="M37.111 66.79a16.805 16.805 0 01-1.727-2.926c-.5-1.07-.9-2.155-1.199-3.269-.657-4.896-.67-9.65-.057-14.26a84.822 84.822 0 012.983-13.632c.229-.5.728-.742 1.5-.742.77 0 1.527.17 2.297.514.771.342 1.4.799 1.899 1.37.5.57.614 1.17.342 1.784-.428.914-.842 2.156-1.256 3.697a81.99 81.99 0 00-1.199 5.14 93.26 93.26 0 00-.999 5.88 84.518 84.518 0 00-.628 5.881c-.129 1.87-.157 3.569-.086 5.082.072 1.513.3 2.712.685 3.583a77.988 77.988 0 004.94-7.494 130.022 130.022 0 004.21-7.865 179.99 179.99 0 003.755-8.066 2380.83 2380.83 0 003.497-8.036 104.76 104.76 0 001.699-4.24c.556-1.498 1.284-2.769 2.212-3.84.386-.342.685-.456.885-.342.214.114.357.328.428.657.072.328.115.67.115 1.027v.828c-.272 1.756-.5 3.497-.686 5.225a20.58 20.58 0 01-1.199 4.996 342.341 342.341 0 01-3.069 7.523 136.83 136.83 0 01-3.383 7.35 92.918 92.918 0 01-3.897 7.024 61.784 61.784 0 01-4.568 6.51c-1.298 1.64-2.597 2.511-3.868 2.611-1.328.115-2.512-.556-3.626-1.97zm23.638-6.48c-.77-1.07-1.527-2.156-2.27-3.269a6.454 6.454 0 01-1.113-3.668c0-1.485.428-2.898 1.285-4.226.856-1.313 1.841-2.384 2.954-3.183a7.72 7.72 0 011.4-.742c.47-.186.984-.172 1.527.057.228.114.47.2.714.257.242.057.47.128.656.2.186.071.4.185.628.342.229.157.343.357.343.628 0 1.07.028 1.942.085 2.612.058.671.143 1.242.257 1.728.115.485.229.899.343 1.256.114.371.228.756.343 1.17.07.386.057.714-.057.971-.115.271-.4.3-.857.114-.842-.3-1.47-.913-1.87-1.841-.4-.928-.7-1.756-.885-2.527a7.423 7.423 0 00-.285-.8 8.778 8.778 0 01-.286-.799c-.3-.07-.67.03-1.085.314-.414.286-.8.686-1.113 1.171-.329.5-.543 1.07-.628 1.727-.1.657.028 1.3.37 1.956.158.228.372.514.657.828.286.328.571.656.857.999.285.343.57.685.856 1 .286.313.528.584.714.77.228.229.385.357.457.371.071.014.271-.028.57-.142.386-.186.971-.443 1.757-.743.785-.3 1.613-.614 2.47-.913a36.41 36.41 0 012.469-.771c.785-.214 1.384-.314 1.813-.314.27 0 .456.1.57.285.115.114.1.272-.057.457a3.87 3.87 0 01-.6.571 9.024 9.024 0 01-.77.514c-.271.157-.443.243-.514.285-.656.386-1.47.814-2.47 1.3-.999.47-1.855.941-2.583 1.398-.071.072-.214.157-.428.229a2.222 2.222 0 00-.486.228c.457 1.028.785 1.927.971 2.67a6.6 6.6 0 01.2 2.155 9.455 9.455 0 01-.428 2.098 35.443 35.443 0 01-.914 2.441 51.518 51.518 0 01-1.642 2.527c-.556.8-1.17 1.527-1.87 2.184a8.276 8.276 0 01-2.24 1.541c-.8.386-1.685.571-2.641.571a6.196 6.196 0 01-1.556-.2c-.5-.128-.914-.413-1.256-.827-.885-.957-1.37-1.999-1.485-3.126a9.211 9.211 0 01.285-3.355 9.982 9.982 0 01.857-1.898c.842-1.457 1.77-2.684 2.783-3.698a51.183 51.183 0 013.198-2.883zm1.956 2.584c-.429.428-1 1.027-1.728 1.813a24.25 24.25 0 00-2.04 2.555 17.072 17.072 0 00-1.542 2.726c-.4.9-.5 1.67-.315 2.327.771-.343 1.556-.914 2.356-1.699.8-.785 1.513-1.641 2.127-2.584.613-.942 1.042-1.87 1.284-2.783.243-.928.2-1.713-.142-2.355z" fill="#292F36" stroke="#fff" stroke-miterlimit="10"/><path d="M51.444 83.549c-17.858 0-32.39-14.532-32.39-32.389 0-17.857 14.532-32.389 32.39-32.389 17.857 0 32.388 14.532 32.388 32.389 0 17.857-14.53 32.389-32.388 32.389zm0-63.35c-17.073 0-30.962 13.889-30.962 30.961s13.89 30.961 30.962 30.961S82.405 68.232 82.405 51.16 68.516 20.199 51.444 20.199z" fill="#292F36"/></svg>