<svg width="19" height="16" fill="none" xmlns="http://www.w3.org/2000/svg"><path d="M16.637 4.094a7.818 7.818 0 001.828-1.899 6.918 6.918 0 01-2.11.563 3.607 3.607 0 001.618-2.04 7.798 7.798 0 01-2.32.915 3.691 3.691 0 00-2.708-1.16 3.69 3.69 0 00-3.691 3.691c0 .281.035.563.105.844A10.71 10.71 0 011.73 1.14a3.59 3.59 0 00-.492 1.863 3.63 3.63 0 001.653 3.058c-.598-.035-1.196-.175-1.688-.457v.036a3.696 3.696 0 002.953 3.62 4.083 4.083 0 01-.949.141c-.246 0-.457-.035-.703-.07.457 1.477 1.828 2.531 3.445 2.566a7.422 7.422 0 01-4.57 1.582c-.317 0-.598-.035-.879-.07 1.617 1.055 3.55 1.652 5.66 1.652 6.785 0 10.477-5.59 10.477-10.476v-.492z" fill="#292F36"/></svg>