<svg width="52" height="53" fill="none" xmlns="http://www.w3.org/2000/svg"><circle cx="26" cy="26.505" r="26" fill="#F4F0EC"/><path d="M35.344 33.96c-.801-.807-2.743-1.986-3.685-2.461-1.226-.618-1.327-.668-2.291.048-.644.478-1.071.905-1.824.744-.753-.16-2.388-1.065-3.82-2.493-1.433-1.427-2.39-3.11-2.551-3.86-.161-.75.273-1.173.746-1.817.668-.91.617-1.06.047-2.287-.445-.954-1.658-2.877-2.469-3.675-.867-.857-.867-.705-1.426-.473a8.086 8.086 0 00-1.304.695c-.808.537-1.256.982-1.57 1.652-.313.67-.454 2.24 1.165 5.181 1.62 2.941 2.755 4.445 5.106 6.79 2.351 2.343 4.159 3.604 6.802 5.086 3.269 1.83 4.523 1.474 5.195 1.161.671-.313 1.12-.757 1.657-1.565a8.04 8.04 0 00.697-1.302c.232-.557.384-.557-.475-1.424z" stroke="#CDA274" stroke-width="2" stroke-miterlimit="10"/></svg>